<mxfile host="app.diagrams.net" agent="Mozilla/5.0 (Windows NT 10.0; Win64; x64) AppleWebKit/537.36 (KHTML, like Gecko) Chrome/129.0.0.0 Safari/537.36" version="24.7.17">
  <diagram id="C5RBs43oDa-KdzZeNtuy" name="Page-1">
    <mxGraphModel dx="2591" dy="916" grid="1" gridSize="10" guides="1" tooltips="1" connect="1" arrows="1" fold="1" page="1" pageScale="1" pageWidth="827" pageHeight="1169" background="none" math="0" shadow="0">
      <root>
        <mxCell id="WIyWlLk6GJQsqaUBKTNV-0" />
        <mxCell id="WIyWlLk6GJQsqaUBKTNV-1" parent="WIyWlLk6GJQsqaUBKTNV-0" />
        <mxCell id="ilfS-zdRNCNXGzNY6fb9-48" style="edgeStyle=orthogonalEdgeStyle;rounded=0;orthogonalLoop=1;jettySize=auto;html=1;entryX=0.5;entryY=0;entryDx=0;entryDy=0;" parent="WIyWlLk6GJQsqaUBKTNV-1" source="WIyWlLk6GJQsqaUBKTNV-3" target="SZtpY77A_bUP3VGcqHaU-2" edge="1">
          <mxGeometry relative="1" as="geometry" />
        </mxCell>
        <mxCell id="WIyWlLk6GJQsqaUBKTNV-3" value="start" style="rounded=1;whiteSpace=wrap;html=1;fontSize=12;glass=0;strokeWidth=1;shadow=0;" parent="WIyWlLk6GJQsqaUBKTNV-1" vertex="1">
          <mxGeometry x="95" y="80" width="120" height="40" as="geometry" />
        </mxCell>
        <mxCell id="ilfS-zdRNCNXGzNY6fb9-49" style="edgeStyle=orthogonalEdgeStyle;rounded=0;orthogonalLoop=1;jettySize=auto;html=1;" parent="WIyWlLk6GJQsqaUBKTNV-1" source="SZtpY77A_bUP3VGcqHaU-2" target="SZtpY77A_bUP3VGcqHaU-4" edge="1">
          <mxGeometry relative="1" as="geometry" />
        </mxCell>
        <mxCell id="SZtpY77A_bUP3VGcqHaU-2" value="&lt;font face=&quot;Times New Roman&quot;&gt;&quot;Selamat Datang di Manajemen Data Webtoon Indonesia.&amp;nbsp;&lt;/font&gt;&lt;div&gt;&lt;font face=&quot;Times New Roman&quot;&gt;Silahkan Registrasi!&quot;&lt;/font&gt;&lt;/div&gt;" style="shape=parallelogram;perimeter=parallelogramPerimeter;whiteSpace=wrap;html=1;fixedSize=1;" parent="WIyWlLk6GJQsqaUBKTNV-1" vertex="1">
          <mxGeometry x="-30" y="170" width="370" height="60" as="geometry" />
        </mxCell>
        <mxCell id="ilfS-zdRNCNXGzNY6fb9-50" style="edgeStyle=orthogonalEdgeStyle;rounded=0;orthogonalLoop=1;jettySize=auto;html=1;" parent="WIyWlLk6GJQsqaUBKTNV-1" source="SZtpY77A_bUP3VGcqHaU-4" target="SZtpY77A_bUP3VGcqHaU-18" edge="1">
          <mxGeometry relative="1" as="geometry" />
        </mxCell>
        <mxCell id="SZtpY77A_bUP3VGcqHaU-4" value="users = {}" style="rounded=0;whiteSpace=wrap;html=1;" parent="WIyWlLk6GJQsqaUBKTNV-1" vertex="1">
          <mxGeometry x="95" y="270" width="120" height="60" as="geometry" />
        </mxCell>
        <mxCell id="ilfS-zdRNCNXGzNY6fb9-51" style="edgeStyle=orthogonalEdgeStyle;rounded=0;orthogonalLoop=1;jettySize=auto;html=1;entryX=0.5;entryY=0;entryDx=0;entryDy=0;" parent="WIyWlLk6GJQsqaUBKTNV-1" source="SZtpY77A_bUP3VGcqHaU-18" target="SZtpY77A_bUP3VGcqHaU-21" edge="1">
          <mxGeometry relative="1" as="geometry" />
        </mxCell>
        <mxCell id="SZtpY77A_bUP3VGcqHaU-18" value="input username, password, dan role" style="shape=parallelogram;perimeter=parallelogramPerimeter;whiteSpace=wrap;html=1;fixedSize=1;" parent="WIyWlLk6GJQsqaUBKTNV-1" vertex="1">
          <mxGeometry x="85" y="360" width="140" height="60" as="geometry" />
        </mxCell>
        <mxCell id="ilfS-zdRNCNXGzNY6fb9-368" style="edgeStyle=orthogonalEdgeStyle;rounded=0;orthogonalLoop=1;jettySize=auto;html=1;entryX=0.5;entryY=0;entryDx=0;entryDy=0;" parent="WIyWlLk6GJQsqaUBKTNV-1" source="SZtpY77A_bUP3VGcqHaU-21" target="SZtpY77A_bUP3VGcqHaU-26" edge="1">
          <mxGeometry relative="1" as="geometry" />
        </mxCell>
        <mxCell id="ilfS-zdRNCNXGzNY6fb9-373" value="False" style="edgeLabel;html=1;align=center;verticalAlign=middle;resizable=0;points=[];" parent="ilfS-zdRNCNXGzNY6fb9-368" vertex="1" connectable="0">
          <mxGeometry x="-0.1222" relative="1" as="geometry">
            <mxPoint as="offset" />
          </mxGeometry>
        </mxCell>
        <mxCell id="SZtpY77A_bUP3VGcqHaU-21" value="role == &quot;admin&quot; or&amp;nbsp;&lt;div&gt;role == &quot;pengguna&quot;&lt;/div&gt;" style="rhombus;whiteSpace=wrap;html=1;" parent="WIyWlLk6GJQsqaUBKTNV-1" vertex="1">
          <mxGeometry x="80" y="490" width="150" height="100" as="geometry" />
        </mxCell>
        <mxCell id="SZtpY77A_bUP3VGcqHaU-22" value="" style="endArrow=classic;html=1;rounded=0;exitX=1;exitY=0.5;exitDx=0;exitDy=0;" parent="WIyWlLk6GJQsqaUBKTNV-1" source="SZtpY77A_bUP3VGcqHaU-21" edge="1">
          <mxGeometry width="50" height="50" relative="1" as="geometry">
            <mxPoint x="310" y="470" as="sourcePoint" />
            <mxPoint x="380" y="540" as="targetPoint" />
            <Array as="points">
              <mxPoint x="340" y="540" />
              <mxPoint x="350" y="540" />
            </Array>
          </mxGeometry>
        </mxCell>
        <mxCell id="SZtpY77A_bUP3VGcqHaU-24" value="&amp;nbsp;True&amp;nbsp;" style="edgeLabel;html=1;align=center;verticalAlign=middle;resizable=0;points=[];" parent="SZtpY77A_bUP3VGcqHaU-22" vertex="1" connectable="0">
          <mxGeometry x="-0.2854" y="-3" relative="1" as="geometry">
            <mxPoint as="offset" />
          </mxGeometry>
        </mxCell>
        <mxCell id="SZtpY77A_bUP3VGcqHaU-44" style="edgeStyle=orthogonalEdgeStyle;rounded=0;orthogonalLoop=1;jettySize=auto;html=1;entryX=0.5;entryY=0;entryDx=0;entryDy=0;" parent="WIyWlLk6GJQsqaUBKTNV-1" source="SZtpY77A_bUP3VGcqHaU-25" target="SZtpY77A_bUP3VGcqHaU-32" edge="1">
          <mxGeometry relative="1" as="geometry" />
        </mxCell>
        <mxCell id="SZtpY77A_bUP3VGcqHaU-25" value="output&lt;div&gt;&quot;Registrasi Berhasil.&quot;&lt;/div&gt;" style="shape=parallelogram;perimeter=parallelogramPerimeter;whiteSpace=wrap;html=1;fixedSize=1;" parent="WIyWlLk6GJQsqaUBKTNV-1" vertex="1">
          <mxGeometry x="370" y="510" width="150" height="60" as="geometry" />
        </mxCell>
        <mxCell id="eADo7EbDgWxF7nHts_-I-171" style="edgeStyle=orthogonalEdgeStyle;rounded=0;orthogonalLoop=1;jettySize=auto;html=1;exitX=0;exitY=0.5;exitDx=0;exitDy=0;entryX=0;entryY=0.5;entryDx=0;entryDy=0;" parent="WIyWlLk6GJQsqaUBKTNV-1" source="SZtpY77A_bUP3VGcqHaU-26" target="SZtpY77A_bUP3VGcqHaU-18" edge="1">
          <mxGeometry relative="1" as="geometry">
            <mxPoint x="85.5" y="420" as="targetPoint" />
            <mxPoint x="25.5" y="640" as="sourcePoint" />
            <Array as="points">
              <mxPoint x="95" y="640" />
              <mxPoint x="106" y="640" />
              <mxPoint x="106" y="660" />
              <mxPoint x="36" y="660" />
              <mxPoint x="36" y="390" />
            </Array>
          </mxGeometry>
        </mxCell>
        <mxCell id="ilfS-zdRNCNXGzNY6fb9-371" style="edgeStyle=orthogonalEdgeStyle;rounded=0;orthogonalLoop=1;jettySize=auto;html=1;exitX=1;exitY=0.75;exitDx=0;exitDy=0;" parent="WIyWlLk6GJQsqaUBKTNV-1" source="SZtpY77A_bUP3VGcqHaU-26" edge="1">
          <mxGeometry relative="1" as="geometry">
            <mxPoint x="240" y="675.3333333333333" as="targetPoint" />
          </mxGeometry>
        </mxCell>
        <mxCell id="SZtpY77A_bUP3VGcqHaU-26" value="output &quot;Data tidak Valid.&quot;" style="rounded=0;whiteSpace=wrap;html=1;" parent="WIyWlLk6GJQsqaUBKTNV-1" vertex="1">
          <mxGeometry x="95" y="630" width="120" height="60" as="geometry" />
        </mxCell>
        <mxCell id="SZtpY77A_bUP3VGcqHaU-43" style="edgeStyle=orthogonalEdgeStyle;rounded=0;orthogonalLoop=1;jettySize=auto;html=1;exitX=0.5;exitY=1;exitDx=0;exitDy=0;entryX=0.5;entryY=0;entryDx=0;entryDy=0;" parent="WIyWlLk6GJQsqaUBKTNV-1" source="SZtpY77A_bUP3VGcqHaU-32" target="SZtpY77A_bUP3VGcqHaU-40" edge="1">
          <mxGeometry relative="1" as="geometry" />
        </mxCell>
        <mxCell id="SZtpY77A_bUP3VGcqHaU-32" value="login&amp;nbsp; = 0" style="rounded=0;whiteSpace=wrap;html=1;" parent="WIyWlLk6GJQsqaUBKTNV-1" vertex="1">
          <mxGeometry x="385" y="600" width="120" height="60" as="geometry" />
        </mxCell>
        <mxCell id="SZtpY77A_bUP3VGcqHaU-46" style="edgeStyle=orthogonalEdgeStyle;rounded=0;orthogonalLoop=1;jettySize=auto;html=1;exitX=0.5;exitY=1;exitDx=0;exitDy=0;entryX=0.5;entryY=0;entryDx=0;entryDy=0;" parent="WIyWlLk6GJQsqaUBKTNV-1" source="SZtpY77A_bUP3VGcqHaU-40" target="SZtpY77A_bUP3VGcqHaU-45" edge="1">
          <mxGeometry relative="1" as="geometry" />
        </mxCell>
        <mxCell id="SZtpY77A_bUP3VGcqHaU-40" value="login &amp;lt; 3" style="shape=hexagon;perimeter=hexagonPerimeter2;whiteSpace=wrap;html=1;fixedSize=1;" parent="WIyWlLk6GJQsqaUBKTNV-1" vertex="1">
          <mxGeometry x="385" y="700" width="120" height="50" as="geometry" />
        </mxCell>
        <mxCell id="SZtpY77A_bUP3VGcqHaU-50" style="edgeStyle=orthogonalEdgeStyle;rounded=0;orthogonalLoop=1;jettySize=auto;html=1;" parent="WIyWlLk6GJQsqaUBKTNV-1" source="SZtpY77A_bUP3VGcqHaU-45" target="SZtpY77A_bUP3VGcqHaU-48" edge="1">
          <mxGeometry relative="1" as="geometry" />
        </mxCell>
        <mxCell id="_kl1bbWpJYE2sp2i0LEu-5" style="edgeStyle=orthogonalEdgeStyle;rounded=0;orthogonalLoop=1;jettySize=auto;html=1;exitX=1;exitY=1;exitDx=0;exitDy=0;" parent="WIyWlLk6GJQsqaUBKTNV-1" source="SZtpY77A_bUP3VGcqHaU-45" edge="1">
          <mxGeometry relative="1" as="geometry">
            <mxPoint x="520" y="832.3333333333333" as="targetPoint" />
          </mxGeometry>
        </mxCell>
        <mxCell id="SZtpY77A_bUP3VGcqHaU-45" value="output&quot;Login User&quot;" style="shape=parallelogram;perimeter=parallelogramPerimeter;whiteSpace=wrap;html=1;fixedSize=1;" parent="WIyWlLk6GJQsqaUBKTNV-1" vertex="1">
          <mxGeometry x="380" y="780" width="130" height="60" as="geometry" />
        </mxCell>
        <mxCell id="SZtpY77A_bUP3VGcqHaU-55" style="edgeStyle=orthogonalEdgeStyle;rounded=0;orthogonalLoop=1;jettySize=auto;html=1;" parent="WIyWlLk6GJQsqaUBKTNV-1" source="SZtpY77A_bUP3VGcqHaU-48" target="SZtpY77A_bUP3VGcqHaU-52" edge="1">
          <mxGeometry relative="1" as="geometry" />
        </mxCell>
        <mxCell id="SZtpY77A_bUP3VGcqHaU-48" value="input username_in, password_in, role_in" style="shape=parallelogram;perimeter=parallelogramPerimeter;whiteSpace=wrap;html=1;fixedSize=1;" parent="WIyWlLk6GJQsqaUBKTNV-1" vertex="1">
          <mxGeometry x="315" y="870" width="260" height="60" as="geometry" />
        </mxCell>
        <mxCell id="eADo7EbDgWxF7nHts_-I-41" style="edgeStyle=orthogonalEdgeStyle;rounded=0;orthogonalLoop=1;jettySize=auto;html=1;" parent="WIyWlLk6GJQsqaUBKTNV-1" source="SZtpY77A_bUP3VGcqHaU-52" edge="1">
          <mxGeometry relative="1" as="geometry">
            <mxPoint x="270" y="1110" as="targetPoint" />
            <Array as="points">
              <mxPoint x="270" y="1045" />
            </Array>
          </mxGeometry>
        </mxCell>
        <mxCell id="eADo7EbDgWxF7nHts_-I-205" value="False" style="edgeLabel;html=1;align=center;verticalAlign=middle;resizable=0;points=[];" parent="eADo7EbDgWxF7nHts_-I-41" vertex="1" connectable="0">
          <mxGeometry x="-0.3626" y="-3" relative="1" as="geometry">
            <mxPoint as="offset" />
          </mxGeometry>
        </mxCell>
        <mxCell id="SZtpY77A_bUP3VGcqHaU-52" value="if username_in == username&amp;nbsp;&lt;div&gt;and&amp;nbsp;&lt;span style=&quot;background-color: initial;&quot;&gt;&amp;nbsp;password_in == password&amp;nbsp;&lt;/span&gt;&lt;/div&gt;&lt;div&gt;&lt;span style=&quot;background-color: initial;&quot;&gt;and&amp;nbsp;&lt;/span&gt;&lt;span style=&quot;background-color: initial;&quot;&gt;role_in = &quot;admin&quot;&lt;/span&gt;&lt;/div&gt;" style="rhombus;whiteSpace=wrap;html=1;" parent="WIyWlLk6GJQsqaUBKTNV-1" vertex="1">
          <mxGeometry x="325" y="970" width="240" height="150" as="geometry" />
        </mxCell>
        <mxCell id="SZtpY77A_bUP3VGcqHaU-57" value="" style="endArrow=classic;html=1;rounded=0;exitX=1;exitY=0.5;exitDx=0;exitDy=0;" parent="WIyWlLk6GJQsqaUBKTNV-1" source="SZtpY77A_bUP3VGcqHaU-52" edge="1">
          <mxGeometry width="50" height="50" relative="1" as="geometry">
            <mxPoint x="420" y="1070" as="sourcePoint" />
            <mxPoint x="630" y="1045" as="targetPoint" />
            <Array as="points" />
          </mxGeometry>
        </mxCell>
        <mxCell id="eADo7EbDgWxF7nHts_-I-203" value="True" style="edgeLabel;html=1;align=center;verticalAlign=middle;resizable=0;points=[];" parent="SZtpY77A_bUP3VGcqHaU-57" vertex="1" connectable="0">
          <mxGeometry x="-0.2479" relative="1" as="geometry">
            <mxPoint as="offset" />
          </mxGeometry>
        </mxCell>
        <mxCell id="GJBjV4vL7WstKXEYxfG4-0" style="edgeStyle=orthogonalEdgeStyle;rounded=0;orthogonalLoop=1;jettySize=auto;html=1;" parent="WIyWlLk6GJQsqaUBKTNV-1" source="SZtpY77A_bUP3VGcqHaU-60" edge="1">
          <mxGeometry relative="1" as="geometry">
            <mxPoint x="790" y="1045" as="targetPoint" />
          </mxGeometry>
        </mxCell>
        <mxCell id="_kl1bbWpJYE2sp2i0LEu-6" style="edgeStyle=orthogonalEdgeStyle;rounded=0;orthogonalLoop=1;jettySize=auto;html=1;exitX=1;exitY=1;exitDx=0;exitDy=0;" parent="WIyWlLk6GJQsqaUBKTNV-1" source="SZtpY77A_bUP3VGcqHaU-60" edge="1">
          <mxGeometry relative="1" as="geometry">
            <mxPoint x="750" y="1066.3333333333333" as="targetPoint" />
          </mxGeometry>
        </mxCell>
        <mxCell id="SZtpY77A_bUP3VGcqHaU-60" value="output&amp;nbsp;&lt;div&gt;&quot;Menu Utama&quot;&lt;div&gt;&lt;br&gt;&lt;/div&gt;&lt;/div&gt;" style="shape=parallelogram;perimeter=parallelogramPerimeter;whiteSpace=wrap;html=1;fixedSize=1;" parent="WIyWlLk6GJQsqaUBKTNV-1" vertex="1">
          <mxGeometry x="620" y="1015" width="120" height="60" as="geometry" />
        </mxCell>
        <mxCell id="JGJfeQF-g1EkItHv-nmV-0" value="" style="endArrow=classic;html=1;rounded=0;" parent="WIyWlLk6GJQsqaUBKTNV-1" edge="1">
          <mxGeometry width="50" height="50" relative="1" as="geometry">
            <mxPoint x="839.5" y="1064" as="sourcePoint" />
            <mxPoint x="839.5" y="1114" as="targetPoint" />
            <Array as="points">
              <mxPoint x="839.5" y="1094" />
            </Array>
          </mxGeometry>
        </mxCell>
        <mxCell id="GJBjV4vL7WstKXEYxfG4-6" style="edgeStyle=orthogonalEdgeStyle;rounded=0;orthogonalLoop=1;jettySize=auto;html=1;" parent="WIyWlLk6GJQsqaUBKTNV-1" source="JGJfeQF-g1EkItHv-nmV-2" target="GJBjV4vL7WstKXEYxfG4-8" edge="1">
          <mxGeometry relative="1" as="geometry">
            <mxPoint x="930" y="1210" as="targetPoint" />
            <Array as="points">
              <mxPoint x="920" y="1129" />
            </Array>
          </mxGeometry>
        </mxCell>
        <mxCell id="eADo7EbDgWxF7nHts_-I-209" value="True" style="edgeLabel;html=1;align=center;verticalAlign=middle;resizable=0;points=[];" parent="GJBjV4vL7WstKXEYxfG4-6" vertex="1" connectable="0">
          <mxGeometry x="-0.7237" y="2" relative="1" as="geometry">
            <mxPoint x="-1" as="offset" />
          </mxGeometry>
        </mxCell>
        <mxCell id="GJBjV4vL7WstKXEYxfG4-10" style="edgeStyle=orthogonalEdgeStyle;rounded=0;orthogonalLoop=1;jettySize=auto;html=1;" parent="WIyWlLk6GJQsqaUBKTNV-1" source="JGJfeQF-g1EkItHv-nmV-2" edge="1">
          <mxGeometry relative="1" as="geometry">
            <mxPoint x="720" y="1200" as="targetPoint" />
          </mxGeometry>
        </mxCell>
        <mxCell id="eADo7EbDgWxF7nHts_-I-211" value="False" style="edgeLabel;html=1;align=center;verticalAlign=middle;resizable=0;points=[];" parent="GJBjV4vL7WstKXEYxfG4-10" vertex="1" connectable="0">
          <mxGeometry x="-0.5557" y="2" relative="1" as="geometry">
            <mxPoint x="-1" as="offset" />
          </mxGeometry>
        </mxCell>
        <mxCell id="JGJfeQF-g1EkItHv-nmV-2" value="if&amp;nbsp; pilih == 1" style="rhombus;whiteSpace=wrap;html=1;" parent="WIyWlLk6GJQsqaUBKTNV-1" vertex="1">
          <mxGeometry x="790" y="1089" width="100" height="80" as="geometry" />
        </mxCell>
        <mxCell id="GJBjV4vL7WstKXEYxfG4-2" value="input pilih" style="shape=parallelogram;perimeter=parallelogramPerimeter;whiteSpace=wrap;html=1;fixedSize=1;" parent="WIyWlLk6GJQsqaUBKTNV-1" vertex="1">
          <mxGeometry x="780" y="1015" width="120" height="60" as="geometry" />
        </mxCell>
        <mxCell id="ilfS-zdRNCNXGzNY6fb9-366" style="edgeStyle=orthogonalEdgeStyle;rounded=0;orthogonalLoop=1;jettySize=auto;html=1;" parent="WIyWlLk6GJQsqaUBKTNV-1" source="GJBjV4vL7WstKXEYxfG4-8" edge="1">
          <mxGeometry relative="1" as="geometry">
            <mxPoint x="1040" y="1240" as="targetPoint" />
          </mxGeometry>
        </mxCell>
        <mxCell id="GJBjV4vL7WstKXEYxfG4-8" value="input judul, pembaca,&amp;nbsp;&lt;div&gt;genre, rating&lt;/div&gt;" style="shape=parallelogram;perimeter=parallelogramPerimeter;whiteSpace=wrap;html=1;fixedSize=1;" parent="WIyWlLk6GJQsqaUBKTNV-1" vertex="1">
          <mxGeometry x="830" y="1210" width="180" height="60" as="geometry" />
        </mxCell>
        <mxCell id="GJBjV4vL7WstKXEYxfG4-14" style="edgeStyle=orthogonalEdgeStyle;rounded=0;orthogonalLoop=1;jettySize=auto;html=1;" parent="WIyWlLk6GJQsqaUBKTNV-1" source="GJBjV4vL7WstKXEYxfG4-11" edge="1">
          <mxGeometry relative="1" as="geometry">
            <mxPoint x="800" y="1320" as="targetPoint" />
          </mxGeometry>
        </mxCell>
        <mxCell id="eADo7EbDgWxF7nHts_-I-212" value="True" style="edgeLabel;html=1;align=center;verticalAlign=middle;resizable=0;points=[];" parent="GJBjV4vL7WstKXEYxfG4-14" vertex="1" connectable="0">
          <mxGeometry x="-0.6224" relative="1" as="geometry">
            <mxPoint as="offset" />
          </mxGeometry>
        </mxCell>
        <mxCell id="eADo7EbDgWxF7nHts_-I-1" style="edgeStyle=orthogonalEdgeStyle;rounded=0;orthogonalLoop=1;jettySize=auto;html=1;entryX=0.5;entryY=0;entryDx=0;entryDy=0;" parent="WIyWlLk6GJQsqaUBKTNV-1" source="GJBjV4vL7WstKXEYxfG4-11" target="GJBjV4vL7WstKXEYxfG4-20" edge="1">
          <mxGeometry relative="1" as="geometry">
            <mxPoint x="610" y="1310" as="targetPoint" />
          </mxGeometry>
        </mxCell>
        <mxCell id="eADo7EbDgWxF7nHts_-I-213" value="False" style="edgeLabel;html=1;align=center;verticalAlign=middle;resizable=0;points=[];" parent="eADo7EbDgWxF7nHts_-I-1" vertex="1" connectable="0">
          <mxGeometry x="-0.6402" relative="1" as="geometry">
            <mxPoint x="-1" as="offset" />
          </mxGeometry>
        </mxCell>
        <mxCell id="GJBjV4vL7WstKXEYxfG4-11" value="if pilih == 2" style="rhombus;whiteSpace=wrap;html=1;" parent="WIyWlLk6GJQsqaUBKTNV-1" vertex="1">
          <mxGeometry x="670" y="1200" width="100" height="80" as="geometry" />
        </mxCell>
        <mxCell id="ilfS-zdRNCNXGzNY6fb9-3" style="edgeStyle=orthogonalEdgeStyle;rounded=0;orthogonalLoop=1;jettySize=auto;html=1;" parent="WIyWlLk6GJQsqaUBKTNV-1" source="GJBjV4vL7WstKXEYxfG4-15" edge="1">
          <mxGeometry relative="1" as="geometry">
            <mxPoint x="1040" y="1335" as="targetPoint" />
          </mxGeometry>
        </mxCell>
        <mxCell id="ilfS-zdRNCNXGzNY6fb9-4" style="edgeStyle=orthogonalEdgeStyle;rounded=0;orthogonalLoop=1;jettySize=auto;html=1;exitX=1;exitY=1;exitDx=0;exitDy=0;" parent="WIyWlLk6GJQsqaUBKTNV-1" source="GJBjV4vL7WstKXEYxfG4-15" edge="1">
          <mxGeometry relative="1" as="geometry">
            <mxPoint x="900" y="1355.1052631578948" as="targetPoint" />
          </mxGeometry>
        </mxCell>
        <mxCell id="GJBjV4vL7WstKXEYxfG4-15" value="output judul, pembaca,&amp;nbsp;&lt;div&gt;genre, rating&lt;/div&gt;" style="shape=parallelogram;perimeter=parallelogramPerimeter;whiteSpace=wrap;html=1;fixedSize=1;" parent="WIyWlLk6GJQsqaUBKTNV-1" vertex="1">
          <mxGeometry x="710" y="1310" width="180" height="50" as="geometry" />
        </mxCell>
        <mxCell id="eADo7EbDgWxF7nHts_-I-2" style="edgeStyle=orthogonalEdgeStyle;rounded=0;orthogonalLoop=1;jettySize=auto;html=1;entryX=0.5;entryY=0;entryDx=0;entryDy=0;" parent="WIyWlLk6GJQsqaUBKTNV-1" source="GJBjV4vL7WstKXEYxfG4-20" target="eADo7EbDgWxF7nHts_-I-4" edge="1">
          <mxGeometry relative="1" as="geometry">
            <mxPoint x="680" y="1430" as="targetPoint" />
          </mxGeometry>
        </mxCell>
        <mxCell id="eADo7EbDgWxF7nHts_-I-215" value="True" style="edgeLabel;html=1;align=center;verticalAlign=middle;resizable=0;points=[];" parent="eADo7EbDgWxF7nHts_-I-2" vertex="1" connectable="0">
          <mxGeometry x="0.1441" relative="1" as="geometry">
            <mxPoint as="offset" />
          </mxGeometry>
        </mxCell>
        <mxCell id="ilfS-zdRNCNXGzNY6fb9-23" style="edgeStyle=orthogonalEdgeStyle;rounded=0;orthogonalLoop=1;jettySize=auto;html=1;entryX=0.5;entryY=0;entryDx=0;entryDy=0;" parent="WIyWlLk6GJQsqaUBKTNV-1" source="GJBjV4vL7WstKXEYxfG4-20" target="eADo7EbDgWxF7nHts_-I-19" edge="1">
          <mxGeometry relative="1" as="geometry">
            <mxPoint x="360" y="1380" as="targetPoint" />
          </mxGeometry>
        </mxCell>
        <mxCell id="ilfS-zdRNCNXGzNY6fb9-40" value="False" style="edgeLabel;html=1;align=center;verticalAlign=middle;resizable=0;points=[];" parent="ilfS-zdRNCNXGzNY6fb9-23" vertex="1" connectable="0">
          <mxGeometry x="-0.2299" y="1" relative="1" as="geometry">
            <mxPoint as="offset" />
          </mxGeometry>
        </mxCell>
        <mxCell id="GJBjV4vL7WstKXEYxfG4-20" value="if pilih == 3" style="rhombus;whiteSpace=wrap;html=1;" parent="WIyWlLk6GJQsqaUBKTNV-1" vertex="1">
          <mxGeometry x="560" y="1340" width="100" height="80" as="geometry" />
        </mxCell>
        <mxCell id="eADo7EbDgWxF7nHts_-I-5" style="edgeStyle=orthogonalEdgeStyle;rounded=0;orthogonalLoop=1;jettySize=auto;html=1;entryX=0.5;entryY=0;entryDx=0;entryDy=0;" parent="WIyWlLk6GJQsqaUBKTNV-1" source="eADo7EbDgWxF7nHts_-I-4" target="eADo7EbDgWxF7nHts_-I-7" edge="1">
          <mxGeometry relative="1" as="geometry">
            <mxPoint x="725" y="1500" as="targetPoint" />
          </mxGeometry>
        </mxCell>
        <mxCell id="eADo7EbDgWxF7nHts_-I-4" value="input judul lama" style="shape=parallelogram;perimeter=parallelogramPerimeter;whiteSpace=wrap;html=1;fixedSize=1;" parent="WIyWlLk6GJQsqaUBKTNV-1" vertex="1">
          <mxGeometry x="720" y="1430" width="120" height="30" as="geometry" />
        </mxCell>
        <mxCell id="eADo7EbDgWxF7nHts_-I-9" style="edgeStyle=orthogonalEdgeStyle;rounded=0;orthogonalLoop=1;jettySize=auto;html=1;" parent="WIyWlLk6GJQsqaUBKTNV-1" source="eADo7EbDgWxF7nHts_-I-7" target="eADo7EbDgWxF7nHts_-I-13" edge="1">
          <mxGeometry relative="1" as="geometry">
            <mxPoint x="855" y="1630" as="targetPoint" />
            <Array as="points">
              <mxPoint x="920" y="1555" />
            </Array>
          </mxGeometry>
        </mxCell>
        <mxCell id="eADo7EbDgWxF7nHts_-I-12" value="True" style="edgeLabel;html=1;align=center;verticalAlign=middle;resizable=0;points=[];" parent="eADo7EbDgWxF7nHts_-I-9" vertex="1" connectable="0">
          <mxGeometry x="-0.4615" relative="1" as="geometry">
            <mxPoint x="-11" as="offset" />
          </mxGeometry>
        </mxCell>
        <mxCell id="eADo7EbDgWxF7nHts_-I-14" style="edgeStyle=orthogonalEdgeStyle;rounded=0;orthogonalLoop=1;jettySize=auto;html=1;" parent="WIyWlLk6GJQsqaUBKTNV-1" source="eADo7EbDgWxF7nHts_-I-7" target="eADo7EbDgWxF7nHts_-I-16" edge="1">
          <mxGeometry relative="1" as="geometry">
            <mxPoint x="605" y="1620" as="targetPoint" />
            <Array as="points">
              <mxPoint x="665" y="1555" />
            </Array>
          </mxGeometry>
        </mxCell>
        <mxCell id="eADo7EbDgWxF7nHts_-I-17" value="False" style="edgeLabel;html=1;align=center;verticalAlign=middle;resizable=0;points=[];" parent="eADo7EbDgWxF7nHts_-I-14" vertex="1" connectable="0">
          <mxGeometry x="-0.4815" y="2" relative="1" as="geometry">
            <mxPoint x="11" y="-2" as="offset" />
          </mxGeometry>
        </mxCell>
        <mxCell id="eADo7EbDgWxF7nHts_-I-7" value="judul lama == judul" style="rhombus;whiteSpace=wrap;html=1;" parent="WIyWlLk6GJQsqaUBKTNV-1" vertex="1">
          <mxGeometry x="707.5" y="1500" width="145" height="110" as="geometry" />
        </mxCell>
        <mxCell id="ilfS-zdRNCNXGzNY6fb9-44" style="edgeStyle=orthogonalEdgeStyle;rounded=0;orthogonalLoop=1;jettySize=auto;html=1;" parent="WIyWlLk6GJQsqaUBKTNV-1" source="eADo7EbDgWxF7nHts_-I-13" edge="1">
          <mxGeometry relative="1" as="geometry">
            <mxPoint x="920" y="1800" as="targetPoint" />
          </mxGeometry>
        </mxCell>
        <mxCell id="eADo7EbDgWxF7nHts_-I-13" value="input data baru" style="shape=parallelogram;perimeter=parallelogramPerimeter;whiteSpace=wrap;html=1;fixedSize=1;" parent="WIyWlLk6GJQsqaUBKTNV-1" vertex="1">
          <mxGeometry x="861.25" y="1610" width="117.5" height="40" as="geometry" />
        </mxCell>
        <mxCell id="ilfS-zdRNCNXGzNY6fb9-41" style="edgeStyle=orthogonalEdgeStyle;rounded=0;orthogonalLoop=1;jettySize=auto;html=1;" parent="WIyWlLk6GJQsqaUBKTNV-1" source="eADo7EbDgWxF7nHts_-I-16" edge="1">
          <mxGeometry relative="1" as="geometry">
            <mxPoint x="665" y="1800" as="targetPoint" />
          </mxGeometry>
        </mxCell>
        <mxCell id="ilfS-zdRNCNXGzNY6fb9-356" style="edgeStyle=orthogonalEdgeStyle;rounded=0;orthogonalLoop=1;jettySize=auto;html=1;exitX=1;exitY=1;exitDx=0;exitDy=0;" parent="WIyWlLk6GJQsqaUBKTNV-1" source="eADo7EbDgWxF7nHts_-I-16" edge="1">
          <mxGeometry relative="1" as="geometry">
            <mxPoint x="750" y="1645.4444444444443" as="targetPoint" />
          </mxGeometry>
        </mxCell>
        <mxCell id="eADo7EbDgWxF7nHts_-I-16" value="Output &quot;Data tidak ditemukan.&quot;" style="shape=parallelogram;perimeter=parallelogramPerimeter;whiteSpace=wrap;html=1;fixedSize=1;" parent="WIyWlLk6GJQsqaUBKTNV-1" vertex="1">
          <mxGeometry x="590" y="1610" width="150" height="40" as="geometry" />
        </mxCell>
        <mxCell id="eADo7EbDgWxF7nHts_-I-28" style="edgeStyle=orthogonalEdgeStyle;rounded=0;orthogonalLoop=1;jettySize=auto;html=1;entryX=0.5;entryY=0;entryDx=0;entryDy=0;" parent="WIyWlLk6GJQsqaUBKTNV-1" source="eADo7EbDgWxF7nHts_-I-27" target="eADo7EbDgWxF7nHts_-I-33" edge="1">
          <mxGeometry relative="1" as="geometry">
            <mxPoint x="200" y="1680" as="targetPoint" />
          </mxGeometry>
        </mxCell>
        <mxCell id="eADo7EbDgWxF7nHts_-I-27" value="if pilih == 5" style="rhombus;whiteSpace=wrap;html=1;" parent="WIyWlLk6GJQsqaUBKTNV-1" vertex="1">
          <mxGeometry x="105" y="1540" width="100" height="80" as="geometry" />
        </mxCell>
        <mxCell id="ilfS-zdRNCNXGzNY6fb9-53" style="edgeStyle=orthogonalEdgeStyle;rounded=0;orthogonalLoop=1;jettySize=auto;html=1;" parent="WIyWlLk6GJQsqaUBKTNV-1" edge="1">
          <mxGeometry relative="1" as="geometry">
            <mxPoint x="155" y="1719" as="sourcePoint" />
            <mxPoint x="155" y="2459" as="targetPoint" />
          </mxGeometry>
        </mxCell>
        <mxCell id="ilfS-zdRNCNXGzNY6fb9-358" style="edgeStyle=orthogonalEdgeStyle;rounded=0;orthogonalLoop=1;jettySize=auto;html=1;exitX=1;exitY=1;exitDx=0;exitDy=0;" parent="WIyWlLk6GJQsqaUBKTNV-1" source="eADo7EbDgWxF7nHts_-I-33" edge="1">
          <mxGeometry relative="1" as="geometry">
            <mxPoint x="260" y="1716.217391304348" as="targetPoint" />
          </mxGeometry>
        </mxCell>
        <mxCell id="eADo7EbDgWxF7nHts_-I-33" value="output&amp;nbsp; &quot;Terima kasih telah mengakses program&quot;" style="shape=parallelogram;perimeter=parallelogramPerimeter;whiteSpace=wrap;html=1;fixedSize=1;" parent="WIyWlLk6GJQsqaUBKTNV-1" vertex="1">
          <mxGeometry x="60" y="1680" width="190" height="40" as="geometry" />
        </mxCell>
        <mxCell id="eADo7EbDgWxF7nHts_-I-42" style="edgeStyle=orthogonalEdgeStyle;rounded=0;orthogonalLoop=1;jettySize=auto;html=1;entryX=0.5;entryY=0;entryDx=0;entryDy=0;" parent="WIyWlLk6GJQsqaUBKTNV-1" source="eADo7EbDgWxF7nHts_-I-39" target="eADo7EbDgWxF7nHts_-I-101" edge="1">
          <mxGeometry relative="1" as="geometry">
            <mxPoint x="270" y="1320" as="targetPoint" />
          </mxGeometry>
        </mxCell>
        <mxCell id="eADo7EbDgWxF7nHts_-I-208" value="True" style="edgeLabel;html=1;align=center;verticalAlign=middle;resizable=0;points=[];" parent="eADo7EbDgWxF7nHts_-I-42" vertex="1" connectable="0">
          <mxGeometry x="-0.4435" y="1" relative="1" as="geometry">
            <mxPoint as="offset" />
          </mxGeometry>
        </mxCell>
        <mxCell id="eADo7EbDgWxF7nHts_-I-164" style="edgeStyle=orthogonalEdgeStyle;rounded=0;orthogonalLoop=1;jettySize=auto;html=1;entryX=1;entryY=0.5;entryDx=0;entryDy=0;" parent="WIyWlLk6GJQsqaUBKTNV-1" source="eADo7EbDgWxF7nHts_-I-39" target="eADo7EbDgWxF7nHts_-I-168" edge="1">
          <mxGeometry relative="1" as="geometry">
            <mxPoint y="1240" as="targetPoint" />
          </mxGeometry>
        </mxCell>
        <mxCell id="eADo7EbDgWxF7nHts_-I-207" value="False" style="edgeLabel;html=1;align=center;verticalAlign=middle;resizable=0;points=[];" parent="eADo7EbDgWxF7nHts_-I-164" vertex="1" connectable="0">
          <mxGeometry x="-0.7091" y="-2" relative="1" as="geometry">
            <mxPoint x="-1" as="offset" />
          </mxGeometry>
        </mxCell>
        <mxCell id="eADo7EbDgWxF7nHts_-I-39" value="if username_in == username&amp;nbsp;&lt;div&gt;and&amp;nbsp;&lt;span style=&quot;background-color: initial;&quot;&gt;&amp;nbsp;password_in == password&amp;nbsp;&lt;/span&gt;&lt;/div&gt;&lt;div&gt;&lt;span style=&quot;background-color: initial;&quot;&gt;and&amp;nbsp;&lt;/span&gt;&lt;span style=&quot;background-color: initial;&quot;&gt;role_in = &quot;pengguna&quot;&lt;/span&gt;&lt;/div&gt;" style="rhombus;whiteSpace=wrap;html=1;" parent="WIyWlLk6GJQsqaUBKTNV-1" vertex="1">
          <mxGeometry x="150" y="1110" width="240" height="150" as="geometry" />
        </mxCell>
        <mxCell id="ilfS-zdRNCNXGzNY6fb9-343" style="edgeStyle=orthogonalEdgeStyle;rounded=0;orthogonalLoop=1;jettySize=auto;html=1;entryX=0.5;entryY=0;entryDx=0;entryDy=0;" parent="WIyWlLk6GJQsqaUBKTNV-1" source="eADo7EbDgWxF7nHts_-I-101" target="ilfS-zdRNCNXGzNY6fb9-304" edge="1">
          <mxGeometry relative="1" as="geometry">
            <mxPoint x="30" y="1590" as="targetPoint" />
            <Array as="points">
              <mxPoint x="-167" y="1370" />
            </Array>
          </mxGeometry>
        </mxCell>
        <mxCell id="ilfS-zdRNCNXGzNY6fb9-361" style="edgeStyle=orthogonalEdgeStyle;rounded=0;orthogonalLoop=1;jettySize=auto;html=1;exitX=1;exitY=1;exitDx=0;exitDy=0;" parent="WIyWlLk6GJQsqaUBKTNV-1" source="eADo7EbDgWxF7nHts_-I-101" edge="1">
          <mxGeometry relative="1" as="geometry">
            <mxPoint x="340" y="1390.888888888889" as="targetPoint" />
          </mxGeometry>
        </mxCell>
        <mxCell id="eADo7EbDgWxF7nHts_-I-101" value="&lt;div&gt;&lt;br&gt;&lt;/div&gt;&lt;div&gt;output&lt;/div&gt;&quot;Menu Utama&quot;&lt;div&gt;&lt;br&gt;&lt;/div&gt;" style="shape=parallelogram;perimeter=parallelogramPerimeter;whiteSpace=wrap;html=1;fixedSize=1;" parent="WIyWlLk6GJQsqaUBKTNV-1" vertex="1">
          <mxGeometry x="210" y="1340" width="120" height="60" as="geometry" />
        </mxCell>
        <mxCell id="ilfS-zdRNCNXGzNY6fb9-345" style="edgeStyle=orthogonalEdgeStyle;rounded=0;orthogonalLoop=1;jettySize=auto;html=1;" parent="WIyWlLk6GJQsqaUBKTNV-1" source="eADo7EbDgWxF7nHts_-I-168" target="eADo7EbDgWxF7nHts_-I-169" edge="1">
          <mxGeometry relative="1" as="geometry" />
        </mxCell>
        <mxCell id="eADo7EbDgWxF7nHts_-I-168" value="output &quot;Gagal Login.&quot;" style="shape=parallelogram;perimeter=parallelogramPerimeter;whiteSpace=wrap;html=1;fixedSize=1;" parent="WIyWlLk6GJQsqaUBKTNV-1" vertex="1">
          <mxGeometry x="-160" y="1155" width="160" height="60" as="geometry" />
        </mxCell>
        <mxCell id="eADo7EbDgWxF7nHts_-I-170" style="edgeStyle=orthogonalEdgeStyle;rounded=0;orthogonalLoop=1;jettySize=auto;html=1;entryX=0;entryY=0.5;entryDx=0;entryDy=0;" parent="WIyWlLk6GJQsqaUBKTNV-1" source="eADo7EbDgWxF7nHts_-I-169" target="SZtpY77A_bUP3VGcqHaU-40" edge="1">
          <mxGeometry relative="1" as="geometry">
            <mxPoint x="-90" y="750" as="targetPoint" />
            <Array as="points">
              <mxPoint x="-250" y="1300" />
              <mxPoint x="-250" y="950" />
              <mxPoint x="100" y="950" />
              <mxPoint x="100" y="725" />
            </Array>
          </mxGeometry>
        </mxCell>
        <mxCell id="eADo7EbDgWxF7nHts_-I-169" value="login += 1" style="rounded=0;whiteSpace=wrap;html=1;" parent="WIyWlLk6GJQsqaUBKTNV-1" vertex="1">
          <mxGeometry x="-140" y="1270" width="120" height="60" as="geometry" />
        </mxCell>
        <mxCell id="eADo7EbDgWxF7nHts_-I-185" value="" style="endArrow=none;html=1;rounded=0;" parent="WIyWlLk6GJQsqaUBKTNV-1" edge="1">
          <mxGeometry width="50" height="50" relative="1" as="geometry">
            <mxPoint x="400" y="1798" as="sourcePoint" />
            <mxPoint x="1040" y="1798" as="targetPoint" />
          </mxGeometry>
        </mxCell>
        <mxCell id="eADo7EbDgWxF7nHts_-I-189" value="" style="endArrow=classic;html=1;rounded=0;entryX=0.917;entryY=0.417;entryDx=0;entryDy=0;entryPerimeter=0;" parent="WIyWlLk6GJQsqaUBKTNV-1" target="GJBjV4vL7WstKXEYxfG4-2" edge="1">
          <mxGeometry width="50" height="50" relative="1" as="geometry">
            <mxPoint x="1040" y="1040" as="sourcePoint" />
            <mxPoint x="750" y="1070" as="targetPoint" />
            <Array as="points">
              <mxPoint x="960" y="1040" />
            </Array>
          </mxGeometry>
        </mxCell>
        <mxCell id="eADo7EbDgWxF7nHts_-I-202" value="end" style="rounded=1;whiteSpace=wrap;html=1;" parent="WIyWlLk6GJQsqaUBKTNV-1" vertex="1">
          <mxGeometry x="95" y="2460" width="120" height="60" as="geometry" />
        </mxCell>
        <mxCell id="_kl1bbWpJYE2sp2i0LEu-3" value="" style="endArrow=classic;html=1;rounded=0;exitX=0.879;exitY=0.806;exitDx=0;exitDy=0;exitPerimeter=0;" parent="WIyWlLk6GJQsqaUBKTNV-1" source="SZtpY77A_bUP3VGcqHaU-25" edge="1">
          <mxGeometry width="50" height="50" relative="1" as="geometry">
            <mxPoint x="510" y="560" as="sourcePoint" />
            <mxPoint x="530" y="560" as="targetPoint" />
            <Array as="points" />
          </mxGeometry>
        </mxCell>
        <mxCell id="ilfS-zdRNCNXGzNY6fb9-11" style="edgeStyle=orthogonalEdgeStyle;rounded=0;orthogonalLoop=1;jettySize=auto;html=1;" parent="WIyWlLk6GJQsqaUBKTNV-1" source="ilfS-zdRNCNXGzNY6fb9-7" edge="1">
          <mxGeometry relative="1" as="geometry">
            <mxPoint x="560" y="1680" as="targetPoint" />
          </mxGeometry>
        </mxCell>
        <mxCell id="ilfS-zdRNCNXGzNY6fb9-15" value="True" style="edgeLabel;html=1;align=center;verticalAlign=middle;resizable=0;points=[];" parent="ilfS-zdRNCNXGzNY6fb9-11" vertex="1" connectable="0">
          <mxGeometry x="-0.0728" y="1" relative="1" as="geometry">
            <mxPoint as="offset" />
          </mxGeometry>
        </mxCell>
        <mxCell id="ilfS-zdRNCNXGzNY6fb9-26" style="edgeStyle=orthogonalEdgeStyle;rounded=0;orthogonalLoop=1;jettySize=auto;html=1;entryX=0.5;entryY=0;entryDx=0;entryDy=0;" parent="WIyWlLk6GJQsqaUBKTNV-1" source="ilfS-zdRNCNXGzNY6fb9-7" target="ilfS-zdRNCNXGzNY6fb9-19" edge="1">
          <mxGeometry relative="1" as="geometry">
            <mxPoint x="400" y="1650" as="targetPoint" />
            <Array as="points">
              <mxPoint x="398" y="1560" />
            </Array>
          </mxGeometry>
        </mxCell>
        <mxCell id="ilfS-zdRNCNXGzNY6fb9-28" value="False" style="edgeLabel;html=1;align=center;verticalAlign=middle;resizable=0;points=[];" parent="ilfS-zdRNCNXGzNY6fb9-26" vertex="1" connectable="0">
          <mxGeometry x="-0.1845" relative="1" as="geometry">
            <mxPoint y="1" as="offset" />
          </mxGeometry>
        </mxCell>
        <mxCell id="ilfS-zdRNCNXGzNY6fb9-7" value="&lt;font style=&quot;font-size: 9px;&quot;&gt;komik webtoon.get&lt;/font&gt;&lt;div&gt;&lt;font style=&quot;font-size: 9px;&quot;&gt;(judul_hapus)&lt;/font&gt;&lt;/div&gt;" style="rhombus;whiteSpace=wrap;html=1;" parent="WIyWlLk6GJQsqaUBKTNV-1" vertex="1">
          <mxGeometry x="419" y="1520" width="116" height="80" as="geometry" />
        </mxCell>
        <mxCell id="ilfS-zdRNCNXGzNY6fb9-42" style="edgeStyle=orthogonalEdgeStyle;rounded=0;orthogonalLoop=1;jettySize=auto;html=1;" parent="WIyWlLk6GJQsqaUBKTNV-1" source="ilfS-zdRNCNXGzNY6fb9-17" edge="1">
          <mxGeometry relative="1" as="geometry">
            <mxPoint x="560" y="1800" as="targetPoint" />
          </mxGeometry>
        </mxCell>
        <mxCell id="ilfS-zdRNCNXGzNY6fb9-17" value="komik_webtoon.pop&lt;div&gt;(&lt;span style=&quot;background-color: initial;&quot;&gt;judul_hapus)&lt;/span&gt;&lt;/div&gt;" style="rounded=0;whiteSpace=wrap;html=1;" parent="WIyWlLk6GJQsqaUBKTNV-1" vertex="1">
          <mxGeometry x="500" y="1680" width="120" height="60" as="geometry" />
        </mxCell>
        <mxCell id="ilfS-zdRNCNXGzNY6fb9-30" style="edgeStyle=orthogonalEdgeStyle;rounded=0;orthogonalLoop=1;jettySize=auto;html=1;" parent="WIyWlLk6GJQsqaUBKTNV-1" source="ilfS-zdRNCNXGzNY6fb9-19" edge="1">
          <mxGeometry relative="1" as="geometry">
            <mxPoint x="397.5" y="1800" as="targetPoint" />
          </mxGeometry>
        </mxCell>
        <mxCell id="ilfS-zdRNCNXGzNY6fb9-357" style="edgeStyle=orthogonalEdgeStyle;rounded=0;orthogonalLoop=1;jettySize=auto;html=1;exitX=1;exitY=1;exitDx=0;exitDy=0;" parent="WIyWlLk6GJQsqaUBKTNV-1" source="ilfS-zdRNCNXGzNY6fb9-19" edge="1">
          <mxGeometry relative="1" as="geometry">
            <mxPoint x="480" y="1732.4285714285716" as="targetPoint" />
          </mxGeometry>
        </mxCell>
        <mxCell id="ilfS-zdRNCNXGzNY6fb9-19" value="output&lt;div&gt;&quot;Data tidak ditemukan.&quot;&lt;/div&gt;" style="shape=parallelogram;perimeter=parallelogramPerimeter;whiteSpace=wrap;html=1;fixedSize=1;" parent="WIyWlLk6GJQsqaUBKTNV-1" vertex="1">
          <mxGeometry x="325" y="1680" width="145" height="60" as="geometry" />
        </mxCell>
        <mxCell id="ilfS-zdRNCNXGzNY6fb9-25" style="edgeStyle=orthogonalEdgeStyle;rounded=0;orthogonalLoop=1;jettySize=auto;html=1;" parent="WIyWlLk6GJQsqaUBKTNV-1" source="eADo7EbDgWxF7nHts_-I-19" target="ilfS-zdRNCNXGzNY6fb9-7" edge="1">
          <mxGeometry relative="1" as="geometry">
            <mxPoint x="480" y="1460" as="targetPoint" />
            <Array as="points">
              <mxPoint x="477" y="1470" />
            </Array>
          </mxGeometry>
        </mxCell>
        <mxCell id="ilfS-zdRNCNXGzNY6fb9-37" value="True" style="edgeLabel;html=1;align=center;verticalAlign=middle;resizable=0;points=[];" parent="ilfS-zdRNCNXGzNY6fb9-25" vertex="1" connectable="0">
          <mxGeometry x="-0.5137" y="1" relative="1" as="geometry">
            <mxPoint x="1" as="offset" />
          </mxGeometry>
        </mxCell>
        <mxCell id="ilfS-zdRNCNXGzNY6fb9-31" style="edgeStyle=orthogonalEdgeStyle;rounded=0;orthogonalLoop=1;jettySize=auto;html=1;" parent="WIyWlLk6GJQsqaUBKTNV-1" source="eADo7EbDgWxF7nHts_-I-19" target="eADo7EbDgWxF7nHts_-I-27" edge="1">
          <mxGeometry relative="1" as="geometry">
            <mxPoint x="160" y="1460" as="targetPoint" />
          </mxGeometry>
        </mxCell>
        <mxCell id="ilfS-zdRNCNXGzNY6fb9-34" value="False" style="edgeLabel;html=1;align=center;verticalAlign=middle;resizable=0;points=[];" parent="ilfS-zdRNCNXGzNY6fb9-31" vertex="1" connectable="0">
          <mxGeometry x="-0.4095" y="2" relative="1" as="geometry">
            <mxPoint x="1" as="offset" />
          </mxGeometry>
        </mxCell>
        <mxCell id="eADo7EbDgWxF7nHts_-I-19" value="if pilih == 4" style="rhombus;whiteSpace=wrap;html=1;" parent="WIyWlLk6GJQsqaUBKTNV-1" vertex="1">
          <mxGeometry x="340" y="1430" width="100" height="80" as="geometry" />
        </mxCell>
        <mxCell id="ilfS-zdRNCNXGzNY6fb9-45" value="" style="endArrow=classic;html=1;rounded=0;" parent="WIyWlLk6GJQsqaUBKTNV-1" edge="1">
          <mxGeometry width="50" height="50" relative="1" as="geometry">
            <mxPoint x="1040" y="1790" as="sourcePoint" />
            <mxPoint x="1040" y="1040" as="targetPoint" />
          </mxGeometry>
        </mxCell>
        <mxCell id="ilfS-zdRNCNXGzNY6fb9-300" style="edgeStyle=orthogonalEdgeStyle;rounded=0;orthogonalLoop=1;jettySize=auto;html=1;" parent="WIyWlLk6GJQsqaUBKTNV-1" source="ilfS-zdRNCNXGzNY6fb9-304" target="ilfS-zdRNCNXGzNY6fb9-305" edge="1">
          <mxGeometry relative="1" as="geometry">
            <mxPoint x="-78.8028169014085" y="1662.054929577465" as="targetPoint" />
            <Array as="points">
              <mxPoint x="-88.66197183098598" y="1574.323943661972" />
            </Array>
          </mxGeometry>
        </mxCell>
        <mxCell id="ilfS-zdRNCNXGzNY6fb9-301" value="True" style="edgeLabel;html=1;align=center;verticalAlign=middle;resizable=0;points=[];" parent="ilfS-zdRNCNXGzNY6fb9-300" vertex="1" connectable="0">
          <mxGeometry x="-0.7237" y="2" relative="1" as="geometry">
            <mxPoint x="-1" as="offset" />
          </mxGeometry>
        </mxCell>
        <mxCell id="ilfS-zdRNCNXGzNY6fb9-302" style="edgeStyle=orthogonalEdgeStyle;rounded=0;orthogonalLoop=1;jettySize=auto;html=1;" parent="WIyWlLk6GJQsqaUBKTNV-1" source="ilfS-zdRNCNXGzNY6fb9-304" edge="1">
          <mxGeometry relative="1" as="geometry">
            <mxPoint x="-285.8450704225353" y="1651.2239436619718" as="targetPoint" />
          </mxGeometry>
        </mxCell>
        <mxCell id="ilfS-zdRNCNXGzNY6fb9-303" value="False" style="edgeLabel;html=1;align=center;verticalAlign=middle;resizable=0;points=[];" parent="ilfS-zdRNCNXGzNY6fb9-302" vertex="1" connectable="0">
          <mxGeometry x="-0.5557" y="2" relative="1" as="geometry">
            <mxPoint x="-1" as="offset" />
          </mxGeometry>
        </mxCell>
        <mxCell id="ilfS-zdRNCNXGzNY6fb9-304" value="if&amp;nbsp; pilih == 1" style="rhombus;whiteSpace=wrap;html=1;" parent="WIyWlLk6GJQsqaUBKTNV-1" vertex="1">
          <mxGeometry x="-216.830985915493" y="1531" width="98.59154929577463" height="86.64788732394368" as="geometry" />
        </mxCell>
        <mxCell id="ilfS-zdRNCNXGzNY6fb9-367" style="edgeStyle=orthogonalEdgeStyle;rounded=0;orthogonalLoop=1;jettySize=auto;html=1;" parent="WIyWlLk6GJQsqaUBKTNV-1" source="ilfS-zdRNCNXGzNY6fb9-305" edge="1">
          <mxGeometry relative="1" as="geometry">
            <mxPoint x="40" y="1694.5478873239435" as="targetPoint" />
          </mxGeometry>
        </mxCell>
        <mxCell id="ilfS-zdRNCNXGzNY6fb9-305" value="input judul, pembaca,&amp;nbsp;&lt;div&gt;genre, rating&lt;/div&gt;" style="shape=parallelogram;perimeter=parallelogramPerimeter;whiteSpace=wrap;html=1;fixedSize=1;" parent="WIyWlLk6GJQsqaUBKTNV-1" vertex="1">
          <mxGeometry x="-177.3943661971831" y="1662.054929577465" width="177.46478873239434" height="64.98591549295777" as="geometry" />
        </mxCell>
        <mxCell id="ilfS-zdRNCNXGzNY6fb9-306" style="edgeStyle=orthogonalEdgeStyle;rounded=0;orthogonalLoop=1;jettySize=auto;html=1;" parent="WIyWlLk6GJQsqaUBKTNV-1" source="ilfS-zdRNCNXGzNY6fb9-310" edge="1">
          <mxGeometry relative="1" as="geometry">
            <mxPoint x="-206.97183098591552" y="1781.1957746478872" as="targetPoint" />
            <Array as="points">
              <mxPoint x="-200" y="1694" />
              <mxPoint x="-200" y="1781" />
            </Array>
          </mxGeometry>
        </mxCell>
        <mxCell id="ilfS-zdRNCNXGzNY6fb9-307" value="True" style="edgeLabel;html=1;align=center;verticalAlign=middle;resizable=0;points=[];" parent="ilfS-zdRNCNXGzNY6fb9-306" vertex="1" connectable="0">
          <mxGeometry x="-0.6224" relative="1" as="geometry">
            <mxPoint as="offset" />
          </mxGeometry>
        </mxCell>
        <mxCell id="ilfS-zdRNCNXGzNY6fb9-308" style="edgeStyle=orthogonalEdgeStyle;rounded=0;orthogonalLoop=1;jettySize=auto;html=1;entryX=0.5;entryY=0;entryDx=0;entryDy=0;" parent="WIyWlLk6GJQsqaUBKTNV-1" source="ilfS-zdRNCNXGzNY6fb9-310" target="ilfS-zdRNCNXGzNY6fb9-318" edge="1">
          <mxGeometry relative="1" as="geometry">
            <mxPoint x="-394.29577464788736" y="1770.3647887323943" as="targetPoint" />
          </mxGeometry>
        </mxCell>
        <mxCell id="ilfS-zdRNCNXGzNY6fb9-309" value="False" style="edgeLabel;html=1;align=center;verticalAlign=middle;resizable=0;points=[];" parent="ilfS-zdRNCNXGzNY6fb9-308" vertex="1" connectable="0">
          <mxGeometry x="-0.6402" relative="1" as="geometry">
            <mxPoint x="-1" as="offset" />
          </mxGeometry>
        </mxCell>
        <mxCell id="ilfS-zdRNCNXGzNY6fb9-310" value="if pilih == 2" style="rhombus;whiteSpace=wrap;html=1;" parent="WIyWlLk6GJQsqaUBKTNV-1" vertex="1">
          <mxGeometry x="-335.14084507042264" y="1651.2239436619718" width="98.59154929577463" height="86.64788732394368" as="geometry" />
        </mxCell>
        <mxCell id="ilfS-zdRNCNXGzNY6fb9-312" style="edgeStyle=orthogonalEdgeStyle;rounded=0;orthogonalLoop=1;jettySize=auto;html=1;exitX=1;exitY=1;exitDx=0;exitDy=0;" parent="WIyWlLk6GJQsqaUBKTNV-1" source="ilfS-zdRNCNXGzNY6fb9-313" edge="1">
          <mxGeometry relative="1" as="geometry">
            <mxPoint x="-108.3802816901408" y="1819.2182357301708" as="targetPoint" />
          </mxGeometry>
        </mxCell>
        <mxCell id="ilfS-zdRNCNXGzNY6fb9-365" style="edgeStyle=orthogonalEdgeStyle;rounded=0;orthogonalLoop=1;jettySize=auto;html=1;" parent="WIyWlLk6GJQsqaUBKTNV-1" source="ilfS-zdRNCNXGzNY6fb9-313" edge="1">
          <mxGeometry relative="1" as="geometry">
            <mxPoint x="40" y="1797.4422535211268" as="targetPoint" />
          </mxGeometry>
        </mxCell>
        <mxCell id="ilfS-zdRNCNXGzNY6fb9-313" value="output judul, pembaca,&amp;nbsp;&lt;div&gt;genre, rating&lt;/div&gt;" style="shape=parallelogram;perimeter=parallelogramPerimeter;whiteSpace=wrap;html=1;fixedSize=1;" parent="WIyWlLk6GJQsqaUBKTNV-1" vertex="1">
          <mxGeometry x="-295.70422535211264" y="1770.3647887323943" width="177.46478873239434" height="54.1549295774648" as="geometry" />
        </mxCell>
        <mxCell id="ilfS-zdRNCNXGzNY6fb9-314" style="edgeStyle=orthogonalEdgeStyle;rounded=0;orthogonalLoop=1;jettySize=auto;html=1;entryX=0.5;entryY=0;entryDx=0;entryDy=0;" parent="WIyWlLk6GJQsqaUBKTNV-1" source="ilfS-zdRNCNXGzNY6fb9-318" target="ilfS-zdRNCNXGzNY6fb9-320" edge="1">
          <mxGeometry relative="1" as="geometry">
            <mxPoint x="-325.2816901408451" y="1900.33661971831" as="targetPoint" />
          </mxGeometry>
        </mxCell>
        <mxCell id="ilfS-zdRNCNXGzNY6fb9-315" value="True" style="edgeLabel;html=1;align=center;verticalAlign=middle;resizable=0;points=[];" parent="ilfS-zdRNCNXGzNY6fb9-314" vertex="1" connectable="0">
          <mxGeometry x="0.1441" relative="1" as="geometry">
            <mxPoint as="offset" />
          </mxGeometry>
        </mxCell>
        <mxCell id="ilfS-zdRNCNXGzNY6fb9-316" style="edgeStyle=orthogonalEdgeStyle;rounded=0;orthogonalLoop=1;jettySize=auto;html=1;entryX=0.5;entryY=0;entryDx=0;entryDy=0;" parent="WIyWlLk6GJQsqaUBKTNV-1" source="ilfS-zdRNCNXGzNY6fb9-318" target="ilfS-zdRNCNXGzNY6fb9-341" edge="1">
          <mxGeometry relative="1" as="geometry">
            <mxPoint x="-640.7746478873239" y="1846.1816901408451" as="targetPoint" />
          </mxGeometry>
        </mxCell>
        <mxCell id="ilfS-zdRNCNXGzNY6fb9-317" value="False" style="edgeLabel;html=1;align=center;verticalAlign=middle;resizable=0;points=[];" parent="ilfS-zdRNCNXGzNY6fb9-316" vertex="1" connectable="0">
          <mxGeometry x="-0.2299" y="1" relative="1" as="geometry">
            <mxPoint as="offset" />
          </mxGeometry>
        </mxCell>
        <mxCell id="ilfS-zdRNCNXGzNY6fb9-318" value="if pilih == 3" style="rhombus;whiteSpace=wrap;html=1;" parent="WIyWlLk6GJQsqaUBKTNV-1" vertex="1">
          <mxGeometry x="-443.59154929577466" y="1802.8577464788732" width="98.59154929577463" height="86.64788732394368" as="geometry" />
        </mxCell>
        <mxCell id="ilfS-zdRNCNXGzNY6fb9-319" style="edgeStyle=orthogonalEdgeStyle;rounded=0;orthogonalLoop=1;jettySize=auto;html=1;entryX=0.5;entryY=0;entryDx=0;entryDy=0;" parent="WIyWlLk6GJQsqaUBKTNV-1" source="ilfS-zdRNCNXGzNY6fb9-320" target="ilfS-zdRNCNXGzNY6fb9-325" edge="1">
          <mxGeometry relative="1" as="geometry">
            <mxPoint x="-280.9154929577466" y="1976.1535211267606" as="targetPoint" />
          </mxGeometry>
        </mxCell>
        <mxCell id="ilfS-zdRNCNXGzNY6fb9-320" value="input judul lama" style="shape=parallelogram;perimeter=parallelogramPerimeter;whiteSpace=wrap;html=1;fixedSize=1;" parent="WIyWlLk6GJQsqaUBKTNV-1" vertex="1">
          <mxGeometry x="-285.8450704225353" y="1900.33661971831" width="118.30985915492957" height="32.492957746478886" as="geometry" />
        </mxCell>
        <mxCell id="ilfS-zdRNCNXGzNY6fb9-321" style="edgeStyle=orthogonalEdgeStyle;rounded=0;orthogonalLoop=1;jettySize=auto;html=1;" parent="WIyWlLk6GJQsqaUBKTNV-1" source="ilfS-zdRNCNXGzNY6fb9-325" target="ilfS-zdRNCNXGzNY6fb9-327" edge="1">
          <mxGeometry relative="1" as="geometry">
            <mxPoint x="-152.74647887323965" y="2116.9563380281693" as="targetPoint" />
            <Array as="points">
              <mxPoint x="-88.66197183098598" y="2035.723943661972" />
            </Array>
          </mxGeometry>
        </mxCell>
        <mxCell id="ilfS-zdRNCNXGzNY6fb9-322" value="True" style="edgeLabel;html=1;align=center;verticalAlign=middle;resizable=0;points=[];" parent="ilfS-zdRNCNXGzNY6fb9-321" vertex="1" connectable="0">
          <mxGeometry x="-0.4615" relative="1" as="geometry">
            <mxPoint x="-11" as="offset" />
          </mxGeometry>
        </mxCell>
        <mxCell id="ilfS-zdRNCNXGzNY6fb9-323" style="edgeStyle=orthogonalEdgeStyle;rounded=0;orthogonalLoop=1;jettySize=auto;html=1;" parent="WIyWlLk6GJQsqaUBKTNV-1" source="ilfS-zdRNCNXGzNY6fb9-325" target="ilfS-zdRNCNXGzNY6fb9-329" edge="1">
          <mxGeometry relative="1" as="geometry">
            <mxPoint x="-399.22535211267603" y="2106.1253521126764" as="targetPoint" />
            <Array as="points">
              <mxPoint x="-340.0704225352113" y="2035.723943661972" />
            </Array>
          </mxGeometry>
        </mxCell>
        <mxCell id="ilfS-zdRNCNXGzNY6fb9-324" value="False" style="edgeLabel;html=1;align=center;verticalAlign=middle;resizable=0;points=[];" parent="ilfS-zdRNCNXGzNY6fb9-323" vertex="1" connectable="0">
          <mxGeometry x="-0.4815" y="2" relative="1" as="geometry">
            <mxPoint x="11" y="-2" as="offset" />
          </mxGeometry>
        </mxCell>
        <mxCell id="ilfS-zdRNCNXGzNY6fb9-325" value="judul lama == judul" style="rhombus;whiteSpace=wrap;html=1;" parent="WIyWlLk6GJQsqaUBKTNV-1" vertex="1">
          <mxGeometry x="-298.1690140845071" y="1976.1535211267606" width="142.95774647887322" height="119.14084507042253" as="geometry" />
        </mxCell>
        <mxCell id="ilfS-zdRNCNXGzNY6fb9-326" style="edgeStyle=orthogonalEdgeStyle;rounded=0;orthogonalLoop=1;jettySize=auto;html=1;" parent="WIyWlLk6GJQsqaUBKTNV-1" source="ilfS-zdRNCNXGzNY6fb9-327" edge="1">
          <mxGeometry relative="1" as="geometry">
            <mxPoint x="-89" y="2320" as="targetPoint" />
          </mxGeometry>
        </mxCell>
        <mxCell id="ilfS-zdRNCNXGzNY6fb9-327" value="input data baru" style="shape=parallelogram;perimeter=parallelogramPerimeter;whiteSpace=wrap;html=1;fixedSize=1;" parent="WIyWlLk6GJQsqaUBKTNV-1" vertex="1">
          <mxGeometry x="-146.58450704225356" y="2095.294366197183" width="115.8450704225352" height="43.32394366197184" as="geometry" />
        </mxCell>
        <mxCell id="ilfS-zdRNCNXGzNY6fb9-328" style="edgeStyle=orthogonalEdgeStyle;rounded=0;orthogonalLoop=1;jettySize=auto;html=1;" parent="WIyWlLk6GJQsqaUBKTNV-1" source="ilfS-zdRNCNXGzNY6fb9-329" edge="1">
          <mxGeometry relative="1" as="geometry">
            <mxPoint x="-340" y="2320" as="targetPoint" />
          </mxGeometry>
        </mxCell>
        <mxCell id="ilfS-zdRNCNXGzNY6fb9-359" style="edgeStyle=orthogonalEdgeStyle;rounded=0;orthogonalLoop=1;jettySize=auto;html=1;exitX=1;exitY=1;exitDx=0;exitDy=0;" parent="WIyWlLk6GJQsqaUBKTNV-1" source="ilfS-zdRNCNXGzNY6fb9-329" edge="1">
          <mxGeometry relative="1" as="geometry">
            <mxPoint x="-260" y="2133.2162162162163" as="targetPoint" />
          </mxGeometry>
        </mxCell>
        <mxCell id="ilfS-zdRNCNXGzNY6fb9-329" value="Output &quot;Data tidak ditemukan.&quot;" style="shape=parallelogram;perimeter=parallelogramPerimeter;whiteSpace=wrap;html=1;fixedSize=1;" parent="WIyWlLk6GJQsqaUBKTNV-1" vertex="1">
          <mxGeometry x="-414.01408450704224" y="2095.294366197183" width="147.88732394366198" height="43.32394366197184" as="geometry" />
        </mxCell>
        <mxCell id="ilfS-zdRNCNXGzNY6fb9-349" style="edgeStyle=orthogonalEdgeStyle;rounded=0;orthogonalLoop=1;jettySize=auto;html=1;entryX=0.5;entryY=0;entryDx=0;entryDy=0;" parent="WIyWlLk6GJQsqaUBKTNV-1" source="ilfS-zdRNCNXGzNY6fb9-341" target="ilfS-zdRNCNXGzNY6fb9-346" edge="1">
          <mxGeometry relative="1" as="geometry" />
        </mxCell>
        <mxCell id="ilfS-zdRNCNXGzNY6fb9-341" value="if pilih == 4" style="rhombus;whiteSpace=wrap;html=1;" parent="WIyWlLk6GJQsqaUBKTNV-1" vertex="1">
          <mxGeometry x="-571" y="1889.505633802817" width="98.59154929577463" height="86.64788732394368" as="geometry" />
        </mxCell>
        <mxCell id="ilfS-zdRNCNXGzNY6fb9-360" style="edgeStyle=orthogonalEdgeStyle;rounded=0;orthogonalLoop=1;jettySize=auto;html=1;exitX=1;exitY=0.75;exitDx=0;exitDy=0;" parent="WIyWlLk6GJQsqaUBKTNV-1" source="ilfS-zdRNCNXGzNY6fb9-346" edge="1">
          <mxGeometry relative="1" as="geometry">
            <mxPoint x="-416" y="2058.529411764706" as="targetPoint" />
          </mxGeometry>
        </mxCell>
        <mxCell id="ilfS-zdRNCNXGzNY6fb9-362" style="edgeStyle=orthogonalEdgeStyle;rounded=0;orthogonalLoop=1;jettySize=auto;html=1;" parent="WIyWlLk6GJQsqaUBKTNV-1" edge="1">
          <mxGeometry relative="1" as="geometry">
            <mxPoint x="-521.1" y="2490" as="targetPoint" />
            <mxPoint x="-522.795652173913" y="2070" as="sourcePoint" />
            <Array as="points">
              <mxPoint x="-520" y="2070" />
              <mxPoint x="-520" y="2071" />
              <mxPoint x="-521" y="2071" />
            </Array>
          </mxGeometry>
        </mxCell>
        <mxCell id="ilfS-zdRNCNXGzNY6fb9-346" value="output&amp;nbsp; &quot;Terima kasih telah mengakses program&quot;" style="shape=parallelogram;perimeter=parallelogramPerimeter;whiteSpace=wrap;html=1;fixedSize=1;" parent="WIyWlLk6GJQsqaUBKTNV-1" vertex="1">
          <mxGeometry x="-616.7" y="2030" width="190" height="40" as="geometry" />
        </mxCell>
        <mxCell id="ilfS-zdRNCNXGzNY6fb9-351" value="" style="endArrow=none;html=1;rounded=0;" parent="WIyWlLk6GJQsqaUBKTNV-1" edge="1">
          <mxGeometry width="50" height="50" relative="1" as="geometry">
            <mxPoint x="-340" y="2320" as="sourcePoint" />
            <mxPoint x="40" y="2320" as="targetPoint" />
          </mxGeometry>
        </mxCell>
        <mxCell id="ilfS-zdRNCNXGzNY6fb9-352" value="" style="endArrow=classic;html=1;rounded=0;" parent="WIyWlLk6GJQsqaUBKTNV-1" edge="1">
          <mxGeometry width="50" height="50" relative="1" as="geometry">
            <mxPoint x="40" y="2320" as="sourcePoint" />
            <mxPoint x="40" y="1440" as="targetPoint" />
          </mxGeometry>
        </mxCell>
        <mxCell id="ilfS-zdRNCNXGzNY6fb9-353" value="" style="endArrow=none;html=1;rounded=0;" parent="WIyWlLk6GJQsqaUBKTNV-1" edge="1">
          <mxGeometry width="50" height="50" relative="1" as="geometry">
            <mxPoint x="40" y="1440" as="sourcePoint" />
            <mxPoint x="270" y="1440" as="targetPoint" />
          </mxGeometry>
        </mxCell>
        <mxCell id="ilfS-zdRNCNXGzNY6fb9-354" value="" style="endArrow=classic;html=1;rounded=0;entryX=0.5;entryY=1;entryDx=0;entryDy=0;" parent="WIyWlLk6GJQsqaUBKTNV-1" target="eADo7EbDgWxF7nHts_-I-101" edge="1">
          <mxGeometry width="50" height="50" relative="1" as="geometry">
            <mxPoint x="270" y="1440" as="sourcePoint" />
            <mxPoint x="20" y="1610" as="targetPoint" />
          </mxGeometry>
        </mxCell>
        <mxCell id="ilfS-zdRNCNXGzNY6fb9-363" value="" style="endArrow=classic;html=1;rounded=0;entryX=0;entryY=0.5;entryDx=0;entryDy=0;" parent="WIyWlLk6GJQsqaUBKTNV-1" target="eADo7EbDgWxF7nHts_-I-202" edge="1">
          <mxGeometry width="50" height="50" relative="1" as="geometry">
            <mxPoint x="-520" y="2490" as="sourcePoint" />
            <mxPoint x="40" y="2190" as="targetPoint" />
          </mxGeometry>
        </mxCell>
      </root>
    </mxGraphModel>
  </diagram>
</mxfile>
